<?xml version="1.0" encoding="utf-8"?>
<!-- Generator: Adobe Illustrator 28.0.0, SVG Export Plug-In . SVG Version: 6.00 Build 0)  -->
<svg version="1.1" id="Layer_1" xmlns="http://www.w3.org/2000/svg" xmlns:xlink="http://www.w3.org/1999/xlink" x="0px" y="0px"
	 viewBox="234 203 385 174" style="enable-background:new 234 203 385 174;" xml:space="preserve" height="58">
<style type="text/css">
	.st0{opacity:0.6;fill:#185045;}
	.st1{fill:#185045;}
</style>

<g>
	<path class="st0" d="M243.98,226.78l35.4,0.12l0.01,28.5c0,6.09,4.94,11.02,11.03,11.02h29.36l-0.06,34.98
		c-0.01,4.83-2.22,9.39-6.01,12.39l-11.77,9.29c-2.11,1.67-5.21,0.16-5.21-2.52l-0.01-30.97l-29.43-0.17
		c-5.99-0.03-10.82-4.89-10.85-10.87l-0.1-29.03l-31.58,0.47c-2.7,0.04-4.25-3.06-2.59-5.19l9.26-11.91
		C234.44,229.01,239.07,226.76,243.98,226.78z"/>
	<path class="st1" d="M342.84,213.91l-0.04,26.63c-0.01,4.88-2.25,9.49-6.1,12.5l-17.06,13.38l-0.01-29.46
		c0-5.62-4.57-10.18-10.19-10.16l-30.06,0.08l13.1-17.35c3.01-3.98,7.71-6.33,12.71-6.33h26.96
		C338.06,203.21,342.85,208,342.84,213.91z"/>
	<path class="st1" d="M380.16,339.11h-26.52c-1.31,0-2.32,0.34-3.01,1.01c-0.69,0.68-1.04,1.65-1.04,2.93
		c0,1.28,0.35,2.28,1.04,2.98c0.69,0.71,1.7,1.07,3.01,1.07H362v25.09c0,1.56,0.43,2.79,1.28,3.68c0.85,0.88,2.08,1.33,3.68,1.33
		s2.8-0.45,3.62-1.33c0.81-0.89,1.22-2.12,1.22-3.68V347.1h8.36c1.35,0,2.36-0.35,3.04-1.04c0.67-0.69,1.01-1.7,1.01-3.01
		c0-1.28-0.34-2.25-1.01-2.93C382.52,339.44,381.51,339.11,380.16,339.11z"/>
	<path class="st1" d="M407.39,349.81c-2.2,0.07-4.04,0.74-5.51,2c-1.06,0.91-1.73,2.12-2.21,3.48v-0.58c0-1.53-0.4-2.7-1.2-3.54
		c-0.8-0.83-1.92-1.25-3.38-1.25c-1.49,0-2.64,0.42-3.44,1.25c-0.8,0.84-1.2,2.02-1.2,3.54v17.69c0,1.53,0.42,2.71,1.25,3.54
		c0.83,0.83,2.03,1.25,3.59,1.25c1.56,0,2.74-0.42,3.54-1.25c0.8-0.83,1.2-2.02,1.2-3.54v-8.79c0-1.7,0.44-2.99,1.33-3.86
		c0.89-0.87,2.25-1.4,4.1-1.57l1.28-0.11c1.46-0.17,2.45-0.63,2.98-1.36c0.53-0.73,0.8-1.73,0.8-3.01
		c-0.04-1.49-0.31-2.52-0.83-3.09C409.19,350.04,408.41,349.78,407.39,349.81z"/>
	<path class="st1" d="M436.07,351.09c-1.9-0.85-4.31-1.28-7.22-1.28c-1.17,0-2.49,0.13-3.94,0.37c-1.46,0.25-3.03,0.68-4.74,1.28
		c-0.92,0.32-1.61,0.81-2.05,1.49c-0.45,0.68-0.67,1.37-0.67,2.08c0,0.71,0.17,1.36,0.51,1.95c0.34,0.59,0.85,1,1.54,1.25
		c0.69,0.25,1.52,0.19,2.48-0.16c1.35-0.49,2.54-0.84,3.59-1.04c1.05-0.2,2.02-0.29,2.9-0.29c1.56,0,2.67,0.26,3.33,0.77
		c0.65,0.52,0.98,1.43,0.98,2.74V361h-2.02c-3.66,0-6.6,0.24-8.82,0.72c-2.22,0.48-3.82,1.27-4.82,2.37
		c-0.99,1.1-1.49,2.61-1.49,4.53c0,1.67,0.44,3.15,1.3,4.45c0.87,1.3,2.09,2.32,3.65,3.09c1.56,0.76,3.35,1.14,5.38,1.14
		c1.31,0,2.49-0.24,3.52-0.72c1.03-0.48,1.86-1.14,2.51-1.97c0.44-0.57,0.73-1.23,0.95-1.93c0.05,1.37,0.4,2.48,1.1,3.26
		c0.76,0.83,1.87,1.25,3.33,1.25c1.38,0,2.46-0.42,3.22-1.25c0.76-0.83,1.14-2.02,1.14-3.54v-10.81c0-2.7-0.47-4.91-1.41-6.63
		C439.39,353.23,437.97,351.94,436.07,351.09z M432.16,368.85c-0.43,0.69-0.99,1.24-1.68,1.63c-0.69,0.39-1.47,0.59-2.32,0.59
		c-1.14,0-1.99-0.27-2.56-0.8c-0.57-0.53-0.85-1.21-0.85-2.02c0-0.67,0.21-1.21,0.64-1.6c0.42-0.39,1.08-0.69,1.97-0.91
		c0.88-0.21,2.02-0.32,3.41-0.32h2.02v1.01C432.8,367.36,432.58,368.16,432.16,368.85z"/>
	<path class="st1" d="M471.17,349.92c-1.24,0-2.22,0.28-2.93,0.83c-0.71,0.55-1.35,1.53-1.92,2.96l-4.72,11.62l-4.49-11.57
		c-0.57-1.49-1.2-2.5-1.89-3.03s-1.61-0.8-2.74-0.8c-1.35,0-2.41,0.29-3.17,0.85c-0.76,0.57-1.22,1.3-1.36,2.21
		c-0.14,0.91,0.02,1.91,0.48,3.01l7.56,17.42c0.53,1.24,1.25,2.18,2.16,2.83c0.91,0.64,1.96,0.96,3.17,0.96
		c1.24,0,2.31-0.31,3.19-0.93c0.89-0.62,1.6-1.55,2.13-2.8l7.78-17.47c0.49-1.1,0.67-2.1,0.53-3.01c-0.14-0.91-0.54-1.64-1.2-2.21
		C473.09,350.2,472.23,349.92,471.17,349.92z"/>
	<path class="st1" d="M502.84,353.51c-1.12-1.19-2.48-2.11-4.08-2.74c-1.6-0.64-3.38-0.96-5.33-0.96c-2.66,0-5.03,0.59-7.11,1.76
		c-2.08,1.17-3.71,2.79-4.9,4.85c-1.19,2.06-1.79,4.44-1.79,7.13c0,2.77,0.62,5.18,1.86,7.24c1.24,2.06,3.03,3.66,5.35,4.79
		c2.33,1.14,5.09,1.7,8.28,1.7c1.42,0,2.83-0.15,4.23-0.45c1.4-0.3,2.71-0.74,3.91-1.3c0.85-0.36,1.46-0.85,1.84-1.49
		c0.37-0.64,0.53-1.32,0.48-2.05c-0.06-0.73-0.27-1.36-0.64-1.89c-0.37-0.53-0.9-0.91-1.57-1.15c-0.68-0.23-1.47-0.16-2.4,0.19
		c-0.92,0.36-1.89,0.62-2.9,0.8c-1.01,0.18-1.91,0.26-2.69,0.26c-2.35,0-4.07-0.53-5.19-1.6c-0.73-0.7-1.2-1.75-1.46-3.09h15.17
		c0.81,0,1.42-0.18,1.81-0.53c0.39-0.36,0.59-0.87,0.59-1.54c0-2.1-0.3-3.98-0.91-5.65C504.82,356.13,503.96,354.7,502.84,353.51z
		 M490.99,356.76c0.81-0.51,1.77-0.77,2.87-0.77c1.03,0,1.89,0.2,2.58,0.62c0.69,0.41,1.22,1.03,1.57,1.86
		c0.29,0.67,0.43,1.54,0.48,2.53h-9.83c0.1-0.73,0.25-1.4,0.48-1.97C489.56,358.03,490.17,357.28,490.99,356.76z"/>
	<path class="st1" d="M526.42,369.52l-0.83,0.08l-0.77,0.08c-0.81,0-1.48-0.3-2-0.91c-0.51-0.6-0.77-1.56-0.77-2.87v-22.53
		c0-1.53-0.42-2.71-1.25-3.54c-0.83-0.84-1.99-1.25-3.48-1.25c-1.57,0-2.74,0.42-3.55,1.25c-0.8,0.83-1.2,2.02-1.2,3.54v22.85
		c0,3.69,0.8,6.46,2.4,8.31c1.6,1.85,4.12,2.77,7.56,2.77c0.46,0,0.96-0.04,1.49-0.13c0.53-0.09,0.96-0.15,1.28-0.19
		c0.99-0.21,1.74-0.62,2.24-1.23c0.5-0.6,0.75-1.53,0.75-2.77c0-1.42-0.15-2.36-0.46-2.82C527.53,369.7,527.06,369.48,526.42,369.52
		z"/>
	<path class="st1" d="M538.39,349.97c-1.56,0-2.74,0.43-3.55,1.3c-0.8,0.87-1.2,2.14-1.2,3.81v16.89c0,1.67,0.4,2.94,1.2,3.81
		c0.8,0.87,1.98,1.3,3.55,1.3c1.53,0,2.7-0.43,3.52-1.3c0.81-0.87,1.22-2.14,1.22-3.81v-16.89c0-1.67-0.42-2.93-1.25-3.81
		C541.04,350.41,539.88,349.97,538.39,349.97z"/>
	<path class="st1" d="M538.39,337.08c-1.71,0-3.02,0.39-3.94,1.17c-0.92,0.78-1.38,1.92-1.38,3.41c0,1.46,0.46,2.57,1.38,3.36
		c0.92,0.78,2.24,1.17,3.94,1.17c1.67,0,2.96-0.39,3.89-1.17c0.92-0.78,1.38-1.9,1.38-3.36c0-1.49-0.46-2.63-1.38-3.41
		C541.35,337.47,540.06,337.08,538.39,337.08z"/>
	<path class="st1" d="M571.29,349.92c-1.53,0-2.69,0.42-3.49,1.25c-0.8,0.84-1.2,2.02-1.2,3.54v10.23c0,1.53-0.42,2.75-1.25,3.68
		c-0.83,0.92-1.89,1.38-3.17,1.38c-1.14,0-1.97-0.32-2.5-0.96c-0.53-0.64-0.8-1.6-0.8-2.88v-11.45c0-1.53-0.42-2.7-1.25-3.54
		c-0.84-0.83-2-1.25-3.49-1.25c-1.53,0-2.7,0.42-3.51,1.25c-0.82,0.84-1.23,2.02-1.23,3.54v11.24c0,2.52,0.36,4.63,1.09,6.31
		c0.73,1.69,1.82,2.95,3.28,3.78c1.46,0.83,3.32,1.25,5.59,1.25c1.92,0,3.58-0.47,4.98-1.41c1.03-0.69,1.83-1.67,2.53-2.79
		c0.12,1.17,0.44,2.16,1.12,2.84c0.81,0.83,1.97,1.25,3.46,1.25c3.09,0,4.63-1.6,4.63-4.79v-17.69c0-1.53-0.42-2.7-1.25-3.54
		C574,350.34,572.82,349.92,571.29,349.92z"/>
	<path class="st1" d="M605.22,351.07c-1.35-0.84-3.07-1.25-5.17-1.25c-2.02,0-3.83,0.45-5.41,1.36c-1.31,0.75-2.31,1.83-3.12,3.12
		c-0.07-1.3-0.42-2.37-1.14-3.12c-0.8-0.83-1.92-1.25-3.38-1.25c-1.49,0-2.64,0.42-3.44,1.25c-0.8,0.84-1.2,2.02-1.2,3.54v17.69
		c0,1.53,0.4,2.71,1.2,3.54c0.8,0.83,1.98,1.25,3.55,1.25c3.16,0,4.74-1.6,4.74-4.79v-10.28c0-1.53,0.43-2.74,1.28-3.65
		c0.85-0.91,1.99-1.36,3.41-1.36c1.06,0,1.87,0.35,2.42,1.04c0.55,0.69,0.82,1.82,0.82,3.38v10.87c0,1.53,0.41,2.71,1.23,3.54
		c0.81,0.83,1.99,1.25,3.52,1.25c1.53,0,2.7-0.42,3.52-1.25c0.81-0.83,1.22-2.02,1.22-3.54v-11.24c0-2.59-0.34-4.71-1.01-6.36
		C607.58,353.14,606.57,351.9,605.22,351.07z"/>
	<path class="st1" d="M481.74,318.86c0.68-0.69,1.01-1.68,1.12-2.84c0.7,1.12,1.5,2.1,2.53,2.79c1.08,0.72,2.35,1.08,3.73,1.24v0.12
		h0.89l0.36,0.05c0.42,0,1.18-0.02,2.06-0.05h32.59v-0.1c0.77,0.09,1.5,0.23,2.33,0.23c2.16,0,4.14-0.31,5.91-0.93
		c1.77-0.62,3.3-1.54,4.58-2.77c1.28-1.22,2.26-2.67,2.93-4.34c0.68-1.67,1.01-3.57,1.01-5.7c0-2.84-0.6-5.29-1.79-7.35
		c-1.19-2.06-2.87-3.64-5.03-4.74c-2.17-1.1-4.71-1.65-7.62-1.65c-2.2,0-4.19,0.31-5.97,0.93c-1.77,0.62-3.3,1.53-4.58,2.74
		c-1.28,1.21-2.26,2.65-2.93,4.34c-0.68,1.69-1.01,3.6-1.01,5.73c0,2.51,0.56,4.69,1.53,6.62h-24.87h-0.41h-1.57
		c-1.28,0-2.34-0.46-3.17-1.38c-0.68-0.75-1.01-1.89-1.13-3.1v-21.66c0-1.53-0.4-2.71-1.2-3.54c-0.8-0.84-1.98-1.25-3.55-1.25
		c-1.49,0-2.65,0.42-3.49,1.25c-0.84,0.83-1.25,2.02-1.25,3.54v22.39c0,1.31-0.26,2.27-0.77,2.87c-0.51,0.6-1.16,0.89-1.96,0.9
		h-11.27l-0.05-0.01h-1.98c-1.28,0-2.34-0.46-3.17-1.38c-0.69-0.76-1.02-1.92-1.14-3.15v-11.06c0-1.53-0.41-2.7-1.23-3.54
		c-0.81-0.83-1.99-1.25-3.52-1.25c-1.49,0-2.65,0.42-3.49,1.25c-0.83,0.84-1.25,2.02-1.25,3.54l0.23,11.76
		c0,1.28-0.27,2.24-0.8,2.88c-0.53,0.64-1.37,0.96-2.5,0.96h-19.54v-6.72l-0.04-0.28c-0.05-2.67-0.61-5.01-1.74-6.98
		c-1.19-2.06-2.87-3.64-5.03-4.74c-2.17-1.1-4.71-1.65-7.62-1.65c-2.2,0-4.19,0.31-5.97,0.93c-1.77,0.62-3.3,1.53-4.58,2.74
		c-1.28,1.21-2.26,2.65-2.93,4.34c-0.68,1.69-1.01,3.6-1.01,5.73c0,2.8,0.61,5.25,1.81,7.33c1.21,2.08,2.9,3.67,5.06,4.77
		c2.16,1.1,4.7,1.65,7.62,1.65c1.78,0,3.4-0.26,4.92-0.69c-0.03,0.99-0.27,1.77-0.77,2.26c-0.53,0.53-1.37,0.85-2.5,0.96l-9.65,0.04
		c-1.81,0.01-3.28,1.48-3.28,3.29c0,1.82,1.47,3.29,3.28,3.29l11.14,0.03c2.59-0.07,4.71-0.52,6.36-1.36
		c1.65-0.84,2.89-2.06,3.7-3.68c0.61-1.22,0.92-2.72,1.07-4.37h27.13l0.15,0.02l0.14-0.02h0.27v-0.04c1.27-0.08,2.31-0.44,3.05-1.19
		c0.68-0.69,1.01-1.68,1.12-2.84c0.7,1.12,1.5,2.1,2.53,2.79c1.4,0.94,3.06,1.41,4.98,1.41c0.71,0,1.71-0.05,2.79-0.13h14.78
		l0.15,0.02C479.77,320.11,480.92,319.69,481.74,318.86z M523.03,302.69c0.43-0.98,1.01-1.69,1.76-2.15
		c0.75-0.46,1.6-0.69,2.56-0.69c1.42,0,2.59,0.52,3.52,1.57c0.92,1.05,1.38,2.76,1.38,5.14c0,1.56-0.21,2.84-0.64,3.84
		c-0.43,0.99-1.01,1.71-1.73,2.16c-0.73,0.44-1.57,0.66-2.53,0.66c-1.46,0-2.65-0.52-3.57-1.57c-0.92-1.05-1.38-2.74-1.38-5.09
		C522.39,304.96,522.61,303.67,523.03,302.69z M411.16,310.39c-0.43,0.99-1.01,1.71-1.73,2.16c-0.73,0.44-1.57,0.66-2.53,0.66
		c-1.46,0-2.65-0.52-3.57-1.57c-0.92-1.05-1.38-2.74-1.38-5.09c0-1.6,0.21-2.88,0.64-3.86c0.43-0.98,1.01-1.69,1.76-2.15
		c0.75-0.46,1.6-0.69,2.56-0.69c1.42,0,2.59,0.52,3.52,1.57c0.92,1.05,1.38,2.76,1.38,5.14C411.8,308.12,411.59,309.4,411.16,310.39
		z"/>
	<path class="st1" d="M603.98,290.34c1.63,0,2.9-0.49,3.81-1.47c0.91-0.98,1.36-2.23,1.36-3.75c0-1.5-0.45-2.71-1.36-3.65
		c-0.91-0.94-2.18-1.41-3.81-1.41c-1.63,0-2.93,0.47-3.89,1.41c-0.96,0.94-1.43,2.15-1.43,3.65c0,1.53,0.48,2.78,1.43,3.75
		C601.05,289.85,602.35,290.34,603.98,290.34z"/>
	<path class="st1" d="M590.73,290.34c1.63,0,2.9-0.49,3.81-1.47c0.91-0.98,1.36-2.23,1.36-3.75c0-1.5-0.45-2.71-1.36-3.65
		c-0.91-0.94-2.18-1.41-3.81-1.41c-1.63,0-2.93,0.47-3.89,1.41c-0.96,0.94-1.43,2.15-1.43,3.65c0,1.53,0.48,2.78,1.43,3.75
		C587.81,289.85,589.1,290.34,590.73,290.34z"/>
	<path class="st1" d="M453.85,334.06c1.63,0,2.9-0.49,3.81-1.47c0.91-0.98,1.36-2.23,1.36-3.75c0-1.5-0.45-2.71-1.36-3.65
		c-0.91-0.94-2.18-1.41-3.81-1.41c-1.63,0-2.93,0.47-3.89,1.41c-0.96,0.94-1.43,2.15-1.43,3.65c0,1.53,0.48,2.78,1.43,3.75
		C450.93,333.57,452.22,334.06,453.85,334.06z"/>
	<path class="st1" d="M440.61,323.78c-1.63,0-2.93,0.47-3.89,1.41c-0.96,0.94-1.43,2.15-1.43,3.65c0,1.53,0.48,2.78,1.43,3.75
		c0.96,0.98,2.26,1.47,3.89,1.47c1.63,0,2.9-0.49,3.81-1.47s1.36-2.23,1.36-3.75c0-1.5-0.45-2.71-1.36-3.65
		C443.51,324.25,442.24,323.78,440.61,323.78z"/>
	<path class="st1" d="M527.4,290.34c1.63,0,2.9-0.49,3.81-1.47c0.91-0.98,1.36-2.23,1.36-3.75c0-1.5-0.45-2.71-1.36-3.65
		c-0.91-0.94-2.18-1.41-3.81-1.41c-1.63,0-2.93,0.47-3.89,1.41c-0.96,0.94-1.43,2.15-1.43,3.65c0,1.53,0.48,2.78,1.43,3.75
		C524.47,289.85,525.77,290.34,527.4,290.34z"/>
	<path class="st1" d="M368.01,290.34c1.63,0,2.9-0.49,3.81-1.47c0.91-0.98,1.36-2.23,1.36-3.75c0-1.5-0.45-2.71-1.36-3.65
		c-0.91-0.94-2.18-1.41-3.81-1.41c-1.63,0-2.93,0.47-3.89,1.41c-0.96,0.94-1.43,2.15-1.43,3.65c0,1.53,0.48,2.78,1.43,3.75
		C365.08,289.85,366.38,290.34,368.01,290.34z"/>
	<path class="st1" d="M553.38,320.19c1.56,0,2.76-0.45,3.6-1.33c0.83-0.89,1.25-2.13,1.25-3.73v-28.5c0-1.6-0.42-2.84-1.27-3.73
		c-0.85-0.88-2.05-1.33-3.57-1.33c-1.6,0-2.82,0.45-3.68,1.33c-0.85,0.89-1.28,2.13-1.28,3.73v28.5c0,1.6,0.43,2.84,1.28,3.73
		C550.55,319.75,551.78,320.19,553.38,320.19z"/>
	<path class="st1" d="M608.7,294.04c-0.81-0.83-1.99-1.25-3.52-1.25c-1.49,0-2.65,0.42-3.49,1.25c-0.83,0.84-1.25,2.02-1.25,3.54
		l0.23,11.76c0,1.28-0.27,2.24-0.8,2.88c-0.53,0.64-1.36,0.96-2.5,0.96h-13.7h-0.56h-1.42c-1.28,0-2.34-0.46-3.17-1.38
		c-0.84-0.92-1.25-2.41-1.25-3.93l-0.04,0.03v-10.31c0-1.53-0.41-2.7-1.23-3.54c-0.81-0.83-1.99-1.25-3.52-1.25s-2.7,0.42-3.52,1.25
		c-0.82,0.84-1.23,2.02-1.23,3.54v21.84c0,1.1-0.26,1.92-0.8,2.45c-0.53,0.53-1.37,0.85-2.5,0.96c-0.75,0.07-1.35,0.35-1.81,0.82
		c-0.46,0.48-0.75,1.05-0.88,1.71c-0.13,0.65-0.06,1.3,0.19,1.94c0.25,0.64,0.7,1.17,1.36,1.6c0.66,0.42,1.54,0.62,2.64,0.59
		c2.59-0.07,4.71-0.52,6.36-1.36c1.65-0.84,2.89-2.06,3.7-3.68c0.81-1.62,1.23-3.62,1.23-5.99v-2.08c0.65,0.96,1.39,1.81,2.3,2.42
		c1.04,0.69,2.26,1.04,3.57,1.22v0.14h1.05l0.36,0.05l0.47-0.05h15.03v0c2.25-0.01,4.1-0.42,5.54-1.24c1.46-0.84,2.55-2.1,3.28-3.78
		c0.73-1.69,1.09-3.79,1.09-6.31v-11.24C609.92,296.06,609.52,294.88,608.7,294.04z"/>
	<path class="st1" d="M381.8,292.79c-1.49,0-2.65,0.42-3.49,1.25c-0.83,0.84-1.25,2.02-1.25,3.54l0.23,11.76
		c0,1.28-0.27,2.24-0.8,2.88c-0.53,0.64-1.37,0.96-2.5,0.96h-11.61c-1.03-0.04-1.82-0.33-2.33-0.93c-0.53-0.64-0.8-1.6-0.8-2.88
		l0.23-11.76c0-1.53-0.42-2.7-1.25-3.54c-0.84-0.83-2-1.25-3.49-1.25c-1.53,0-2.7,0.42-3.52,1.25c-0.82,0.84-1.23,2.02-1.23,3.54
		v11.24c0,2.52,0.36,4.63,1.09,6.31c0.73,1.69,1.82,2.95,3.28,3.78c1.28,0.73,2.94,1.09,4.86,1.17v0.05h0.45l0.28,0.03l0.01-0.03
		h16.66v0c2.25-0.01,4.1-0.42,5.54-1.24c1.46-0.84,2.55-2.1,3.28-3.78c0.73-1.69,1.09-3.79,1.09-6.31v-11.24
		c0-1.53-0.41-2.7-1.23-3.54C384.5,293.21,383.33,292.79,381.8,292.79z"/>
</g>
</svg>